<?xml version="1.0" encoding="utf-8"?>
<!-- Generator: Adobe Illustrator 24.0.0, SVG Export Plug-In . SVG Version: 6.00 Build 0)  -->
<svg version="1.1" id="Layer_1" xmlns="http://www.w3.org/2000/svg" xmlns:xlink="http://www.w3.org/1999/xlink" x="0px" y="0px"
	 viewBox="0 0 1425.4 767.4" style="enable-background:new 0 0 1425.4 767.4;" xml:space="preserve">
<style type="text/css">
	.st0{fill-rule:evenodd;clip-rule:evenodd;fill:#2B1C5C;}
	.st1{fill-rule:evenodd;clip-rule:evenodd;fill:#AA0064;}
	.st2{fill:none;stroke:#BCBCBC;stroke-width:2;stroke-miterlimit:10;}
	.st3{fill:#FFF4CA;}
	.st4{fill:#FFE1BA;}
	.st5{fill:#FF641A;}
	.st6{fill:#F03800;}
	.st7{fill:#676E74;}
	.st8{fill:#32393F;}
	.st9{fill:#DEECF1;}
	.st10{fill:#C6E2E7;}
	.st11{fill:#FFC473;}
	.st12{fill:#64E1DC;}
	.st13{fill:#00C8C8;}
	.st14{fill:#474F54;}
</style>
<g>
	<path class="st0" d="M336,382.7V143.5H166.6v238.2c0,0-3.1,79,33.9,131.4c17.5,24.6,35.9,60.6,168.4,112.9
		c132.4-52.4,149.9-88.3,167.3-112.9c37-52.4,33.9-130.4,33.9-130.4H336L336,382.7z"/>
	<path class="st1" d="M570,143.5v176.6H401.7V143.5H570z"/>
</g>
<line class="st2" x1="693.5" y1="187.7" x2="693.5" y2="579.7"/>
<g>
	<path class="st3" d="M1312.5,272.6V607c0,8.9-7,15.9-15.9,15.9H850.2c-8.9,0-15.9-7-15.9-15.9V272.6l31.7-31.7h414.8L1312.5,272.6z
		"/>
	<path class="st4" d="M1312.5,272.6V607c0,8.9-7,15.9-15.9,15.9h-223.3v-382h207.4L1312.5,272.6z"/>
	<path class="st5" d="M1312.5,160.4v112.2H834.3V160.4c0-8.9,7-15.9,15.9-15.9h446.5C1305.6,144.6,1312.5,151.6,1312.5,160.4z"/>
	<path class="st6" d="M1312.5,160.4v112.2h-239.1v-128h223.3C1305.6,144.6,1312.5,151.6,1312.5,160.4z"/>
	<path class="st7" d="M978.2,240.9h-63.5c-8.8,0-15.9-7.1-15.9-15.9c0-8.8,7.1-15.9,15.9-15.9h63.5c8.8,0,15.9,7.1,15.9,15.9
		C994.1,233.8,987,240.9,978.2,240.9z"/>
	<path class="st7" d="M1121,225c0,8.9-7,15.9-15.9,15.9h-63.5c-8.9,0-15.9-7-15.9-15.9c0-8.9,7-15.9,15.9-15.9h63.5
		C1114,209.1,1121,216.1,1121,225z"/>
	<path class="st8" d="M1233.2,240.9h-63.5c-8.8,0-15.9-7.1-15.9-15.9c0-8.8,7.1-15.9,15.9-15.9h63.5c8.8,0,15.9,7.1,15.9,15.9
		C1249.1,233.8,1241.9,240.9,1233.2,240.9z"/>
	<path class="st8" d="M1105.2,240.9h-31.7v-31.7h31.7c8.9,0,15.9,7,15.9,15.9C1121,233.9,1114,240.9,1105.2,240.9z"/>
	<path class="st9" d="M946.4,240.9c-8.8,0-15.9-7.1-15.9-15.9v-96.3c0-8.8,7.1-15.9,15.9-15.9s15.9,7.1,15.9,15.9V225
		C962.3,233.8,955.2,240.9,946.4,240.9z"/>
	<path class="st9" d="M1089.3,128.7V225c0,8.9-7,15.9-15.9,15.9s-15.9-7-15.9-15.9v-96.3c0-8.9,7-15.9,15.9-15.9
		S1089.3,119.8,1089.3,128.7z"/>
	<path class="st10" d="M1201.4,240.9c-8.8,0-15.9-7.1-15.9-15.9v-96.3c0-8.8,7.1-15.9,15.9-15.9c8.8,0,15.9,7.1,15.9,15.9V225
		C1217.3,233.8,1210.2,240.9,1201.4,240.9z"/>
	<g>
		<path class="st4" d="M978.2,432.4h-63.5c-8.8,0-15.9-7.1-15.9-15.9V353c0-8.8,7.1-15.9,15.9-15.9h63.5c8.8,0,15.9,7.1,15.9,15.9
			v63.5C994.1,425.3,987,432.4,978.2,432.4z"/>
		<path class="st4" d="M978.2,559.3h-63.5c-8.8,0-15.9-7.1-15.9-15.9V480c0-8.8,7.1-15.9,15.9-15.9h63.5c8.8,0,15.9,7.1,15.9,15.9
			v63.5C994.1,552.2,987,559.3,978.2,559.3z"/>
		<path class="st4" d="M1105.2,337.1h-63.5c-8.9,0-15.9,7-15.9,15.9v63.5c0,8.9,7,15.9,15.9,15.9h63.5c8.9,0,15.9-7,15.9-15.9V353
			C1121,344.1,1114,337.1,1105.2,337.1z"/>
		<path class="st4" d="M1105.2,464.1h-63.5c-8.9,0-15.9,7-15.9,15.9v63.5c0,8.9,7,15.9,15.9,15.9h63.5c8.9,0,15.9-7,15.9-15.9V480
			C1121,471.1,1114,464.1,1105.2,464.1z"/>
	</g>
	<path class="st11" d="M1233.2,432.4h-63.5c-8.8,0-15.9-7.1-15.9-15.9V353c0-8.8,7.1-15.9,15.9-15.9h63.5c8.8,0,15.9,7.1,15.9,15.9
		v63.5C1249.1,425.3,1241.9,432.4,1233.2,432.4z"/>
	<path class="st11" d="M1121,353v63.5c0,8.9-7,15.9-15.9,15.9h-31.7v-95.2h31.7C1114,337.1,1121,344.1,1121,353z"/>
	<path class="st11" d="M1121,480v63.5c0,8.9-7,15.9-15.9,15.9h-31.7v-95.2h31.7C1114,464.1,1121,471.1,1121,480z"/>
	<path class="st10" d="M1089.3,128.7V225c0,8.9-7,15.9-15.9,15.9v-128C1082.3,112.8,1089.3,119.8,1089.3,128.7z"/>
	<path class="st12" d="M1264.9,432.4c-61.3,0-111.1,49.8-111.1,111.1s49.8,111.1,111.1,111.1S1376,604.7,1376,543.5
		S1326.2,432.4,1264.9,432.4z"/>
	<path class="st13" d="M1376,543.5c0,61.3-49.8,111.1-111.1,111.1V432.4C1326.2,432.4,1376,482.2,1376,543.5z"/>
	<path class="st9" d="M1264.9,464.1c-43.8,0-79.4,35.6-79.4,79.4c0,43.8,35.6,79.4,79.4,79.4c43.8,0,79.4-35.6,79.4-79.4
		C1344.3,499.7,1308.7,464.1,1264.9,464.1z"/>
	<path class="st10" d="M1344.3,543.5c0,43.8-35.6,79.4-79.4,79.4V464.1C1308.7,464.1,1344.3,499.7,1344.3,543.5z"/>
	<path class="st7" d="M1312.5,543.5c0,8.9-7,15.9-15.9,15.9h-31.7c-8.9,0-15.9-7-15.9-15.9v-31.7c0-8.9,7-15.9,15.9-15.9
		c8.9,0,15.9,7,15.9,15.9v15.9h15.9C1305.6,527.6,1312.5,534.6,1312.5,543.5z"/>
	<path class="st14" d="M1312.5,543.5c0,8.9-7,15.9-15.9,15.9h-31.7v-63.5c8.9,0,15.9,7,15.9,15.9v15.9h15.9
		C1305.6,527.6,1312.5,534.6,1312.5,543.5z"/>
</g>
</svg>
